<?xml version="1.0" encoding="iso-8859-1"?>
<!-- Generator: Adobe Illustrator 24.2.1, SVG Export Plug-In . SVG Version: 6.00 Build 0)  -->
<svg version="1.1" id="Layer_1" xmlns="http://www.w3.org/2000/svg" xmlns:xlink="http://www.w3.org/1999/xlink" x="0px" y="0px"
	 viewBox="0 0 47.005 432.875" style="enable-background:new 0 0 47.005 432.875;" xml:space="preserve">
<g id="Layer_7">
	<path style="opacity:0.8;fill:none;enable-background:new    ;" d="M44.935,200.01c0,3.626-2.938,6.564-6.564,6.564H8.3
		c-3.626,0-6.564-2.938-6.564-6.564v-30.07c0-3.626,2.938-6.564,6.564-6.564h30.07c3.627,0,6.564,2.938,6.564,6.564v30.07H44.935z"
		/>
	<g>
		<g>
			<path style="fill:none;stroke:#214403;stroke-width:0.75;stroke-miterlimit:10;" d="M37.873,192.835l-4.171-4.171
				c-0.829-0.826-2.206-0.801-3.064,0.058l-2.103,2.101c-0.132-0.074-0.268-0.151-0.413-0.231c-1.327-0.735-3.143-1.742-5.054-3.655
				c-1.916-1.916-2.924-3.734-3.661-5.062c-0.078-0.141-0.153-0.277-0.226-0.405l1.41-1.408l0.693-0.694
				c0.861-0.861,0.884-2.236,0.056-3.065l-4.17-4.17c-0.828-0.829-2.203-0.804-3.064,0.058l-1.175,1.182l0.032,0.032
				c-0.394,0.503-0.724,1.083-0.968,1.708c-0.227,0.595-0.368,1.163-0.431,1.732c-0.551,4.565,1.535,8.736,7.195,14.397
				c7.825,7.824,14.132,7.233,14.404,7.205c0.591-0.071,1.16-0.212,1.736-0.437c0.62-0.243,1.2-0.571,1.701-0.964l0.026,0.023
				l1.19-1.166C38.675,195.041,38.7,193.666,37.873,192.835z"/>
		</g>
	</g>
</g>
<g id="Layer_6">
	<path style="opacity:0.8;fill:none;enable-background:new    ;" d="M44.935,146.144c0,3.626-2.938,6.564-6.564,6.564H8.3
		c-3.626,0-6.564-2.938-6.564-6.564v-30.07c0-3.626,2.938-6.564,6.564-6.564h30.07c3.627,0,6.564,2.938,6.564,6.564v30.07H44.935z"
		/>
	<path style="fill:none;stroke:#214403;stroke-width:0.75;stroke-miterlimit:10;" d="M36.449,124.706
		c-0.65-1.41-1.548-2.604-2.691-3.579c-1.144-0.977-2.494-1.725-4.052-2.248c-1.557-0.521-3.244-0.783-5.056-0.783
		c-1.913,0-3.726,0.33-5.442,0.99c-1.714,0.661-3.223,1.602-4.523,2.824c-1.302,1.223-2.337,2.703-3.106,4.437
		c-0.769,1.735-1.153,3.677-1.153,5.826c0,2.109,0.334,3.968,1.004,5.574c0.671,1.607,1.603,2.952,2.796,4.037
		c1.193,1.084,2.601,1.901,4.229,2.454c1.626,0.551,3.395,0.828,5.308,0.828c1.084,0,2.045-0.079,2.882-0.237
		c0.837-0.157,1.662-0.433,2.47-0.827c0,0,0.569-0.81,0.244-1.722s-1.161-1.117-1.161-1.117c-0.593,0.275-1.251,0.483-1.98,0.622
		c-0.73,0.137-1.382,0.205-1.952,0.205c-1.697,0-3.2-0.231-4.511-0.694c-1.311-0.464-2.41-1.124-3.297-1.98
		c-0.888-0.859-1.562-1.897-2.026-3.121c-0.463-1.222-0.694-2.602-0.694-4.14c0-1.558,0.275-3.002,0.829-4.332
		c0.551-1.331,1.315-2.479,2.292-3.446c0.976-0.964,2.125-1.724,3.445-2.277c1.322-0.552,2.751-0.828,4.288-0.828
		c1.34,0,2.592,0.159,3.755,0.474s2.174,0.813,3.032,1.494c0.857,0.68,1.532,1.543,2.026,2.587c0.49,1.045,0.739,2.307,0.739,3.785
		c0,1.026-0.124,1.913-0.37,2.662c-0.246,0.75-0.567,1.37-0.962,1.863c-0.396,0.493-0.838,0.857-1.33,1.094
		s-0.997,0.355-1.508,0.355c-0.514,0-0.843-0.208-0.992-0.621c-0.147-0.415-0.142-1.085,0.017-2.011l1.42-8.014h-2.072l-0.916,0.947
		c-0.396-0.336-0.827-0.606-1.299-0.813c-0.474-0.207-1.057-0.31-1.746-0.31c-1.004,0-1.956,0.271-2.854,0.813
		c-0.896,0.543-1.686,1.257-2.366,2.144c-0.679,0.888-1.217,1.907-1.611,3.061c-0.395,1.154-0.592,2.342-0.592,3.563
		c0,0.651,0.094,1.243,0.281,1.775c0.188,0.533,0.438,0.986,0.754,1.36c0.314,0.375,0.69,0.666,1.124,0.874
		c0.433,0.206,0.887,0.31,1.36,0.31c0.592,0,1.132-0.089,1.627-0.267c0.492-0.177,0.946-0.418,1.359-0.724
		c0.415-0.306,0.794-0.656,1.14-1.05c0.344-0.394,0.663-0.798,0.96-1.211h0.118c-0.061,0.612-0.02,1.124,0.119,1.537
		c0.137,0.414,0.35,0.749,0.635,1.006c0.286,0.256,0.64,0.438,1.063,0.547c0.425,0.109,0.883,0.163,1.376,0.163
		c1.183,0,2.292-0.236,3.325-0.709c1.036-0.474,1.941-1.114,2.723-1.921c0.777-0.808,1.389-1.765,1.834-2.869
		c0.442-1.105,0.664-2.287,0.664-3.549C37.426,127.717,37.1,126.115,36.449,124.706z M25.745,132.499
		c-0.218,0.395-0.463,0.769-0.74,1.124c-0.277,0.354-0.563,0.67-0.857,0.946c-0.297,0.276-0.602,0.498-0.918,0.667
		c-0.313,0.167-0.611,0.25-0.888,0.25c-0.649,0-1.107-0.208-1.374-0.62c-0.267-0.415-0.4-0.947-0.4-1.599
		c0-0.629,0.099-1.275,0.297-1.937c0.197-0.659,0.478-1.257,0.843-1.789c0.365-0.533,0.798-0.966,1.302-1.3
		c0.502-0.336,1.049-0.503,1.641-0.503c0.413,0,0.759,0.059,1.034,0.177c0.277,0.118,0.542,0.286,0.798,0.503L25.745,132.499z"/>
</g>
<g id="Layer_3">
	<path style="opacity:0.9;fill:none;enable-background:new    ;" d="M45.108,38.011c0,3.625-2.939,6.565-6.564,6.565H8.472
		c-3.625,0-6.564-2.939-6.564-6.565V7.94c0-3.625,2.939-6.565,6.564-6.565h30.072c3.625,0,6.564,2.939,6.564,6.565
		C45.108,7.94,45.108,38.011,45.108,38.011z"/>
	<path style="fill:none;stroke:#214403;stroke-miterlimit:10;" d="M35.046,26.332l0.699-5.417h-5.363v-3.458
		c0-1.568,0.438-2.637,2.686-2.637l2.865-0.001V9.974c-0.494-0.066-2.195-0.213-4.178-0.213c-4.137,0-6.966,2.525-6.966,7.161v3.995
		h-4.678v5.417h4.678V40.23h5.593V26.332H35.046z"/>
</g>
<g id="Layer_4">
	<path style="opacity:0.8;fill:none;enable-background:new    ;" d="M44.935,92.01c0,3.626-2.938,6.564-6.564,6.564H8.3
		c-3.626,0-6.564-2.938-6.564-6.564V61.94c0-3.626,2.938-6.564,6.564-6.564h30.07c3.627,0,6.564,2.938,6.564,6.564v30.07H44.935z"/>
	<path style="fill:none;stroke:#214403;stroke-miterlimit:10;" d="M14.295,64.951H32.97c1.775,0,3.225,1.451,3.225,3.226v18.675
		c0,1.774-1.449,3.224-3.225,3.224H14.295c-1.774,0-3.227-1.45-3.227-3.224V68.176C11.069,66.402,12.521,64.951,14.295,64.951z
		 M29.372,67.741c-0.621,0-1.131,0.511-1.131,1.133v2.706c0,0.624,0.51,1.132,1.131,1.132h2.84c0.623,0,1.131-0.509,1.131-1.132
		v-2.706c0-0.623-0.508-1.133-1.131-1.133H29.372z M33.354,75.575h-2.211c0.209,0.686,0.324,1.407,0.324,2.158
		c0,4.178-3.498,7.566-7.812,7.566c-4.313,0-7.811-3.388-7.811-7.566c0-0.751,0.115-1.472,0.323-2.158H13.86V86.19
		c0,0.55,0.449,0.997,0.999,0.997h17.496c0.551,0,0.998-0.447,0.998-0.997L33.354,75.575L33.354,75.575z M23.656,72.57
		c-2.786,0-5.045,2.188-5.045,4.89c0,2.699,2.259,4.889,5.045,4.889c2.787,0,5.046-2.19,5.046-4.889
		C28.702,74.757,26.443,72.57,23.656,72.57z"/>
</g>
<g id="Layer_7_copy">
	<path style="opacity:0.8;fill:none;stroke:#214403;stroke-miterlimit:10;enable-background:new    ;" d="M45.106,416.01
		c0,3.627-2.938,6.564-6.564,6.564H8.472c-3.626,0-6.564-2.938-6.564-6.564v-30.07c0-3.625,2.938-6.564,6.564-6.564h30.07
		c3.627,0,6.564,2.939,6.564,6.564V416.01z"/>
	<g>
		<g>
			<path style="fill:#214403;" d="M38.045,408.836l-4.171-4.171c-0.829-0.826-2.206-0.802-3.064,0.058l-2.103,2.101
				c-0.132-0.073-0.268-0.15-0.413-0.231c-1.327-0.734-3.143-1.741-5.053-3.654c-1.916-1.916-2.925-3.734-3.662-5.062
				c-0.078-0.141-0.153-0.276-0.226-0.405l1.411-1.408l0.692-0.693c0.86-0.861,0.883-2.236,0.056-3.065l-4.171-4.17
				c-0.828-0.829-2.203-0.805-3.064,0.057l-1.175,1.183l0.032,0.032c-0.394,0.502-0.724,1.082-0.968,1.708
				c-0.226,0.595-0.367,1.162-0.431,1.731c-0.551,4.564,1.535,8.736,7.195,14.397c7.825,7.824,14.132,7.233,14.404,7.205
				c0.591-0.071,1.16-0.213,1.736-0.438c0.62-0.243,1.2-0.571,1.701-0.964l0.026,0.022l1.19-1.165
				C38.847,411.042,38.872,409.667,38.045,408.836z"/>
		</g>
	</g>
</g>
<g id="Layer_6_copy">
	<path style="opacity:0.8;fill:none;stroke:#214403;stroke-miterlimit:10;enable-background:new    ;" d="M45.106,362.01
		c0,3.625-2.938,6.564-6.564,6.564H8.472c-3.626,0-6.564-2.939-6.564-6.564v-30.07c0-3.627,2.938-6.564,6.564-6.564h30.07
		c3.627,0,6.564,2.938,6.564,6.564V362.01z"/>
	<path style="fill:#214403;" d="M36.621,340.571c-0.65-1.409-1.549-2.604-2.691-3.579c-1.144-0.977-2.494-1.725-4.052-2.248
		c-1.557-0.521-3.244-0.783-5.056-0.783c-1.913,0-3.726,0.331-5.442,0.991c-1.714,0.66-3.222,1.601-4.523,2.823
		c-1.302,1.224-2.337,2.703-3.105,4.437c-0.769,1.735-1.154,3.677-1.154,5.826c0,2.108,0.335,3.967,1.004,5.574
		c0.671,1.607,1.603,2.952,2.796,4.037c1.193,1.084,2.601,1.901,4.229,2.453c1.626,0.552,3.395,0.829,5.308,0.829
		c1.084,0,2.045-0.079,2.882-0.237c0.837-0.157,1.662-0.434,2.47-0.827c0,0,0.569-0.812,0.244-1.723
		c-0.325-0.912-1.161-1.118-1.161-1.118c-0.593,0.276-1.252,0.484-1.98,0.623c-0.729,0.138-1.381,0.205-1.951,0.205
		c-1.697,0-3.201-0.231-4.512-0.694c-1.31-0.463-2.409-1.123-3.296-1.979c-0.888-0.859-1.562-1.897-2.026-3.121
		c-0.462-1.223-0.694-2.603-0.694-4.142c0-1.557,0.276-3,0.829-4.331c0.551-1.331,1.315-2.479,2.292-3.445
		c0.976-0.965,2.125-1.724,3.445-2.277c1.321-0.552,2.75-0.829,4.288-0.829c1.34,0,2.592,0.159,3.755,0.475
		c1.163,0.316,2.174,0.813,3.032,1.494c0.857,0.68,1.532,1.543,2.026,2.588c0.49,1.045,0.739,2.307,0.739,3.785
		c0,1.026-0.124,1.913-0.37,2.661c-0.246,0.749-0.567,1.37-0.962,1.862c-0.396,0.494-0.838,0.858-1.331,1.094
		c-0.492,0.237-0.996,0.355-1.507,0.355c-0.514,0-0.843-0.207-0.992-0.62c-0.147-0.414-0.142-1.085,0.017-2.012l1.419-8.014H28.52
		l-0.916,0.946c-0.396-0.335-0.827-0.606-1.3-0.813s-1.056-0.31-1.746-0.31c-1.004,0-1.956,0.271-2.854,0.813
		c-0.896,0.541-1.686,1.257-2.366,2.143c-0.679,0.888-1.217,1.907-1.611,3.062c-0.395,1.153-0.592,2.341-0.592,3.562
		c0,0.652,0.094,1.243,0.281,1.775c0.188,0.534,0.438,0.986,0.754,1.36c0.314,0.375,0.69,0.666,1.124,0.873
		c0.433,0.206,0.887,0.311,1.359,0.311c0.592,0,1.133-0.09,1.627-0.268c0.492-0.177,0.946-0.418,1.36-0.723
		c0.415-0.307,0.794-0.657,1.14-1.051c0.344-0.394,0.663-0.798,0.96-1.212h0.117c-0.06,0.611-0.019,1.123,0.119,1.537
		c0.138,0.415,0.35,0.749,0.636,1.007c0.286,0.256,0.64,0.438,1.063,0.545c0.425,0.11,0.883,0.164,1.375,0.164
		c1.184,0,2.293-0.237,3.326-0.709c1.036-0.475,1.941-1.115,2.722-1.923c0.778-0.809,1.389-1.765,1.835-2.869
		c0.441-1.104,0.664-2.286,0.664-3.549C37.598,343.583,37.271,341.98,36.621,340.571z M25.917,348.364
		c-0.218,0.395-0.463,0.769-0.74,1.124c-0.277,0.354-0.563,0.67-0.857,0.945c-0.297,0.275-0.603,0.498-0.918,0.666
		c-0.314,0.167-0.611,0.251-0.888,0.251c-0.649,0-1.107-0.208-1.374-0.62c-0.267-0.414-0.4-0.947-0.4-1.6
		c0-0.628,0.099-1.274,0.297-1.936c0.197-0.659,0.477-1.257,0.843-1.789c0.364-0.532,0.798-0.967,1.301-1.301
		c0.502-0.335,1.05-0.503,1.641-0.503c0.413,0,0.759,0.06,1.034,0.178c0.277,0.118,0.542,0.285,0.798,0.503L25.917,348.364z"/>
</g>
<g id="Layer_3_copy">
	<path style="opacity:0.9;fill:none;stroke:#214403;stroke-miterlimit:10;enable-background:new    ;" d="M45.124,254.011
		c0,3.626-2.939,6.565-6.564,6.565H8.488c-3.625,0-6.564-2.939-6.564-6.565V223.94c0-3.625,2.939-6.564,6.564-6.564H38.56
		c3.625,0,6.564,2.939,6.564,6.564V254.011z"/>
	<path style="fill:#214403;" d="M35.062,242.332l0.699-5.416h-5.363v-3.459c0-1.568,0.438-2.637,2.686-2.637l2.865-0.002v-4.845
		c-0.494-0.065-2.195-0.214-4.178-0.214c-4.137,0-6.966,2.525-6.966,7.161v3.995h-4.677v5.416h4.677v13.898h5.593v-13.898
		L35.062,242.332L35.062,242.332z"/>
</g>
<g id="Layer_4_copy">
	<path style="opacity:0.8;fill:none;stroke:#214403;stroke-miterlimit:10;enable-background:new    ;" d="M45.106,308.01
		c0,3.627-2.938,6.564-6.564,6.564H8.472c-3.626,0-6.564-2.938-6.564-6.564v-30.07c0-3.625,2.938-6.564,6.564-6.564h30.07
		c3.627,0,6.564,2.939,6.564,6.564V308.01z"/>
	<path style="fill:#214403;" d="M14.467,280.951h18.674c1.775,0,3.225,1.451,3.225,3.226v18.675c0,1.774-1.449,3.225-3.225,3.225
		H14.467c-1.774,0-3.227-1.45-3.227-3.225v-18.675C11.241,282.402,12.693,280.951,14.467,280.951z M29.544,283.742
		c-0.621,0-1.131,0.51-1.131,1.133v2.705c0,0.624,0.51,1.133,1.131,1.133h2.84c0.623,0,1.131-0.509,1.131-1.133v-2.705
		c0-0.623-0.508-1.133-1.131-1.133H29.544z M33.526,291.576h-2.211c0.209,0.686,0.324,1.406,0.324,2.157
		c0,4.179-3.498,7.566-7.812,7.566c-4.313,0-7.811-3.388-7.811-7.566c0-0.751,0.115-1.472,0.323-2.157h-2.307v10.614
		c0,0.55,0.449,0.997,0.999,0.997h17.496c0.551,0,0.998-0.447,0.998-0.997L33.526,291.576L33.526,291.576z M23.828,288.57
		c-2.785,0-5.045,2.188-5.045,4.89c0,2.699,2.26,4.89,5.045,4.89c2.787,0,5.046-2.19,5.046-4.89
		C28.874,290.758,26.615,288.57,23.828,288.57z"/>
</g>
</svg>
